<svg width="107" height="73" viewBox="0 0 107 73" fill="none" xmlns="http://www.w3.org/2000/svg">
<path d="M37.7841 35.9531L38.2838 35.9355L38.2837 35.9347L38.2836 35.9309L38.2831 35.9146L38.2813 35.8475C38.2799 35.7878 38.2781 35.6981 38.2766 35.5806C38.2737 35.3454 38.2723 34.9985 38.2783 34.5549C38.2904 33.6677 38.3322 32.3944 38.4515 30.8557C38.6902 27.7762 39.2383 23.6442 40.4734 19.4198C42.9494 10.9509 48.131 2.2642 58.9629 0.71678L58.963 0.716914L58.9744 0.715002C61.1904 0.345676 63.4138 0.467227 65.6503 0.964213L65.6503 0.964244L65.6557 0.965395C68.04 1.46734 71.3117 2.46774 74.1012 4.28091C76.7403 5.99639 78.912 8.41304 79.5423 11.8018H75.4952C75.4697 11.7505 75.4404 11.6944 75.4071 11.6343C75.2466 11.3446 74.9917 10.9587 74.6078 10.5574C73.8343 9.74875 72.5557 8.89736 70.5296 8.62721L70.5275 8.62694C66.3659 8.08996 62.4681 10.371 60.8524 14.0037C59.3966 17.1818 58.6392 22.0118 60.701 29.0991L60.7037 29.1083L60.7067 29.1175C60.7594 29.2756 60.7861 29.4071 60.8179 29.5661L60.8192 29.5725C60.8495 29.7239 60.8848 29.9003 60.9527 30.1095C61.2231 31.3161 62.1326 34.6509 64.678 39.6145L64.9499 40.1446L65.4248 39.7849L65.4252 39.7846L65.4276 39.7828L65.4381 39.775L65.4821 39.7423C65.5215 39.7132 65.5809 39.6697 65.6595 39.6132C65.8167 39.5001 66.0505 39.3353 66.3536 39.1301C66.9601 38.7197 67.8438 38.1483 68.948 37.5082C71.1583 36.2269 74.2427 34.6756 77.7487 33.5854C84.7668 31.403 93.3649 31.0916 100.107 38.3284L100.113 38.3349L100.119 38.3411L100.31 38.5319L100.501 38.7226L100.509 38.731L100.518 38.739C101.187 39.3473 104.229 42.4539 105.559 46.7195C106.22 48.8419 106.453 51.2389 105.772 53.7597C105.115 56.1875 103.6 58.7681 100.729 61.3509L97.6802 58.6171C97.7751 58.4488 97.8925 58.2286 98.0157 57.969C98.3054 57.3586 98.6367 56.5104 98.7738 55.5934C98.9108 54.6768 98.8596 53.6496 98.3319 52.7262C97.7987 51.7931 96.8235 51.0432 95.2681 50.6037L95.2014 50.5848H95.1321C95.1025 50.5848 95.0841 50.5813 95.0378 50.5581C95.0074 50.5429 94.9754 50.5245 94.9217 50.4935L94.9171 50.4908C94.8646 50.4605 94.7979 50.4223 94.7199 50.3833L94.7045 50.3756L94.6886 50.369C93.8655 50.026 91.4104 49.2664 88.4245 49.847C85.4124 50.4326 81.9241 52.3706 79.059 57.3193L79.0547 57.3268L79.0507 57.3343L72.0817 70.3854C71.7984 70.7193 71.5744 70.9037 71.3844 70.9987C71.2069 71.0874 71.0365 71.1099 70.8221 71.0681C68.5751 70.5548 62.5132 69.3118 55.1438 68.8013C47.7742 68.2909 39.0535 68.5097 31.5261 70.9545L31.5103 70.9596L31.4948 70.9658C31.3494 71.0239 31.2036 70.9986 31.0837 70.9186C30.9504 70.8298 30.9089 70.7171 30.9089 70.6671V70.6457L30.9071 70.6244C30.7149 68.3823 30.1067 63.3804 28.5798 58.6713C27.8165 56.3172 26.8161 54.0121 25.5066 52.1574C24.2038 50.3123 22.5685 48.8766 20.5234 48.3212C20.5088 48.3154 20.4896 48.3077 20.4658 48.2985C20.4099 48.2767 20.3292 48.2461 20.2266 48.2094C20.0213 48.1361 19.7276 48.038 19.3682 47.9371C18.6517 47.7359 17.6627 47.52 16.5879 47.47C14.4449 47.3703 11.8378 47.9367 10.5044 50.7386C9.81703 52.1159 9.68145 53.6256 9.95406 54.9933C10.0843 55.7082 10.2855 56.5261 10.6519 57.2415C10.8953 57.7168 11.2208 58.1636 11.6596 58.5023L7.79752 61.1447C7.72941 61.0953 7.649 61.039 7.55465 60.9759C-3.06169 53.0646 -1.46261 37.2651 10.7823 31.5749C16.9589 28.734 25.7992 28.1866 37.4976 36.3629L38.319 36.9369L38.2838 35.9355L37.7841 35.9531Z" fill="#CA0000" stroke="black"/>
<path d="M7.00342 64.6907C7.00342 61.064 10.172 58.197 14.0057 58.197C17.8333 58.197 21.008 61.1855 21.008 64.6907C21.008 68.3173 17.8394 71.1843 14.0057 71.1843C10.172 71.1843 7.00342 68.3173 7.00342 64.6907Z" fill="#CA0000" stroke="black"/>
<path d="M88.1296 65.5808C88.1296 61.9541 91.2982 59.0871 95.1319 59.0871C99.081 59.0871 102.134 62.0703 102.134 65.5808C102.134 69.0859 98.9595 72.0744 95.1319 72.0744C91.2982 72.0744 88.1296 69.2074 88.1296 65.5808Z" fill="#CA0000" stroke="black"/>
<path d="M77.3299 25.0261H77.3221L77.3143 25.0264C73.5076 25.1454 70.3276 22.1727 70.3276 18.5325C70.3276 14.9059 73.4962 12.0388 77.3299 12.0388C81.279 12.0388 84.3322 15.022 84.3322 18.5325C84.3322 22.1591 81.1636 25.0261 77.3299 25.0261Z" fill="#CA0000" stroke="black"/>
</svg>
