<svg width="96" height="80" viewBox="0 0 96 80" fill="none" xmlns="http://www.w3.org/2000/svg">
<path d="M48 19.5684C42.8621 19.5684 38.6562 15.3625 38.6562 10.2246C38.6562 4.96868 42.858 0.880875 48 0.880875C53.142 0.880875 57.3438 4.96868 57.3438 10.2246C57.3438 15.3625 53.1379 19.5684 48 19.5684ZM8.74706 16.5049C12.7684 16.5049 16 19.8382 16 23.8799C16 28.0385 12.7734 31.2549 8.74706 31.2549C4.58341 31.2549 1.25 28.0234 1.25 23.8799C1.25 19.8534 4.5885 16.5049 8.74706 16.5049ZM87.4971 16.5049C91.5184 16.5049 94.75 19.8382 94.75 23.8799C94.75 28.0385 91.5235 31.2549 87.4971 31.2549C83.3334 31.2549 80 28.0234 80 23.8799C80 19.8534 83.3385 16.5049 87.4971 16.5049ZM17.7792 69.8936L11.4205 35.0935C13.1663 34.6622 14.7829 33.7136 16.1168 32.6572C18.0855 34.4195 20.3091 36.1433 22.6417 37.4506C25.098 38.8271 27.707 39.7598 30.2852 39.7598C33.4986 39.7598 36.3061 37.2949 38.6726 34.0471C40.9738 30.8889 42.96 26.8491 44.591 23.1407C45.6277 23.4656 46.8564 23.7656 48.0079 23.7656C49.1599 23.7656 50.3862 23.4653 51.4246 23.1404C53.0556 26.8507 55.0419 30.8907 57.3432 34.0486C59.7097 37.296 62.5172 39.7598 65.7306 39.7598C68.3087 39.7598 70.9177 38.8271 73.3741 37.4506C75.7066 36.1433 77.9303 34.4195 79.8989 32.6572C81.2329 33.7136 82.8494 34.6622 84.5952 35.0935L78.2365 69.8936H17.7792ZM79.4922 73.9688V78.9971H16.5078V73.9688H79.4922Z" fill="#FFD700" stroke="black"/>
</svg>
